<mxfile host="65bd71144e">
    <diagram name="Page-1" id="_muBPrpG7ApsDm3bkieO">
        <mxGraphModel dx="1328" dy="506" grid="1" gridSize="10" guides="1" tooltips="1" connect="1" arrows="1" fold="1" page="1" pageScale="1" pageWidth="827" pageHeight="1169" math="0" shadow="0">
            <root>
                <mxCell id="0"/>
                <mxCell id="1" parent="0"/>
                <mxCell id="80" value="" style="rounded=1;whiteSpace=wrap;html=1;fillColor=#e1d5e7;strokeColor=#9673a6;strokeWidth=2;shadow=0;glass=0;fillStyle=auto;" parent="1" vertex="1">
                    <mxGeometry x="1010" y="440" width="120" height="60" as="geometry"/>
                </mxCell>
                <mxCell id="81" value="" style="rounded=1;whiteSpace=wrap;html=1;fillColor=#e1d5e7;strokeColor=#9673a6;strokeWidth=2;shadow=0;glass=0;fillStyle=auto;" parent="1" vertex="1">
                    <mxGeometry x="1010" y="550" width="120" height="60" as="geometry"/>
                </mxCell>
                <mxCell id="39" style="edgeStyle=orthogonalEdgeStyle;shape=connector;curved=0;rounded=0;html=1;entryX=0;entryY=0.5;entryDx=0;entryDy=0;strokeColor=default;align=center;verticalAlign=middle;fontFamily=Helvetica;fontSize=11;fontColor=default;labelBackgroundColor=default;endArrow=classic;strokeWidth=1;" parent="1" source="_g_-pIgFg-YZKvBXQmOI-11" target="_g_-pIgFg-YZKvBXQmOI-55" edge="1">
                    <mxGeometry relative="1" as="geometry"/>
                </mxCell>
                <mxCell id="_g_-pIgFg-YZKvBXQmOI-11" value="&lt;font style=&quot;font-size: 14px;&quot;&gt;&lt;b&gt;Fil de kanthal&lt;/b&gt;&lt;/font&gt;" style="rounded=1;whiteSpace=wrap;html=1;strokeWidth=1;" parent="1" vertex="1">
                    <mxGeometry x="210" y="480" width="120" height="60" as="geometry"/>
                </mxCell>
                <mxCell id="_g_-pIgFg-YZKvBXQmOI-32" style="edgeStyle=orthogonalEdgeStyle;rounded=0;orthogonalLoop=1;jettySize=auto;html=1;exitX=0.5;exitY=1;exitDx=0;exitDy=0;strokeWidth=1;" parent="1" edge="1">
                    <mxGeometry relative="1" as="geometry">
                        <mxPoint x="990" y="420" as="sourcePoint"/>
                        <mxPoint x="990" y="420" as="targetPoint"/>
                    </mxGeometry>
                </mxCell>
                <mxCell id="76" style="edgeStyle=orthogonalEdgeStyle;shape=connector;rounded=0;html=1;entryX=0;entryY=0.5;entryDx=0;entryDy=0;strokeColor=default;strokeWidth=1;align=center;verticalAlign=middle;fontFamily=Helvetica;fontSize=11;fontColor=default;labelBackgroundColor=default;endArrow=classic;" parent="1" source="_g_-pIgFg-YZKvBXQmOI-55" target="_g_-pIgFg-YZKvBXQmOI-56" edge="1">
                    <mxGeometry relative="1" as="geometry"/>
                </mxCell>
                <mxCell id="_g_-pIgFg-YZKvBXQmOI-55" value="&lt;font style=&quot;font-size: 14px;&quot; color=&quot;#808080&quot;&gt;&lt;b&gt;Production&lt;/b&gt;&lt;/font&gt;" style="rounded=0;whiteSpace=wrap;html=1;strokeWidth=3;strokeColor=#666666;fillColor=#f5f5f5;fontColor=#333333;" parent="1" vertex="1">
                    <mxGeometry x="374" y="500" width="120" height="60" as="geometry"/>
                </mxCell>
                <mxCell id="_g_-pIgFg-YZKvBXQmOI-102" style="edgeStyle=orthogonalEdgeStyle;rounded=0;orthogonalLoop=1;jettySize=auto;html=1;entryX=0;entryY=0.5;entryDx=0;entryDy=0;strokeWidth=1;" parent="1" source="_g_-pIgFg-YZKvBXQmOI-56" target="_g_-pIgFg-YZKvBXQmOI-57" edge="1">
                    <mxGeometry relative="1" as="geometry"/>
                </mxCell>
                <mxCell id="_g_-pIgFg-YZKvBXQmOI-56" value="&lt;font style=&quot;font-size: 14px;&quot; color=&quot;#808080&quot;&gt;&lt;b style=&quot;&quot;&gt;Distribution&lt;/b&gt;&lt;/font&gt;" style="rounded=0;whiteSpace=wrap;html=1;strokeWidth=3;strokeColor=#666666;fillColor=#f5f5f5;fontColor=#333333;" parent="1" vertex="1">
                    <mxGeometry x="518" y="500" width="120" height="60" as="geometry"/>
                </mxCell>
                <mxCell id="75" style="edgeStyle=orthogonalEdgeStyle;shape=connector;rounded=0;html=1;entryX=0;entryY=0.5;entryDx=0;entryDy=0;strokeColor=default;strokeWidth=1;align=center;verticalAlign=middle;fontFamily=Helvetica;fontSize=11;fontColor=default;labelBackgroundColor=default;endArrow=classic;" parent="1" source="_g_-pIgFg-YZKvBXQmOI-57" target="_g_-pIgFg-YZKvBXQmOI-58" edge="1">
                    <mxGeometry relative="1" as="geometry"/>
                </mxCell>
                <mxCell id="_g_-pIgFg-YZKvBXQmOI-57" value="&lt;font style=&quot;font-size: 14px;&quot; color=&quot;#808080&quot;&gt;&lt;b style=&quot;&quot;&gt;Utilisation&lt;/b&gt;&lt;/font&gt;" style="rounded=0;whiteSpace=wrap;html=1;strokeWidth=3;strokeColor=#666666;fillColor=#f5f5f5;fontColor=#333333;" parent="1" vertex="1">
                    <mxGeometry x="670" y="500" width="120" height="60" as="geometry"/>
                </mxCell>
                <mxCell id="_g_-pIgFg-YZKvBXQmOI-117" style="edgeStyle=orthogonalEdgeStyle;rounded=0;orthogonalLoop=1;jettySize=auto;html=1;exitX=1;exitY=0.5;exitDx=0;exitDy=0;entryX=0;entryY=0.5;entryDx=0;entryDy=0;strokeWidth=1;" parent="1" source="_g_-pIgFg-YZKvBXQmOI-58" target="80" edge="1">
                    <mxGeometry relative="1" as="geometry">
                        <mxPoint x="1020" y="530" as="targetPoint"/>
                    </mxGeometry>
                </mxCell>
                <mxCell id="61" style="edgeStyle=orthogonalEdgeStyle;shape=connector;rounded=0;html=1;entryX=0;entryY=0.5;entryDx=0;entryDy=0;strokeColor=default;strokeWidth=1;align=center;verticalAlign=middle;fontFamily=Helvetica;fontSize=11;fontColor=default;labelBackgroundColor=default;endArrow=classic;" parent="1" source="_g_-pIgFg-YZKvBXQmOI-58" target="81" edge="1">
                    <mxGeometry relative="1" as="geometry"/>
                </mxCell>
                <mxCell id="_g_-pIgFg-YZKvBXQmOI-58" value="&lt;font style=&quot;font-size: 14px;&quot; color=&quot;#808080&quot;&gt;&lt;b style=&quot;&quot;&gt;Fin de vie&lt;/b&gt;&lt;/font&gt;" style="rounded=0;whiteSpace=wrap;html=1;strokeWidth=3;strokeColor=#666666;fillColor=#f5f5f5;fontColor=#333333;" parent="1" vertex="1">
                    <mxGeometry x="820" y="500" width="120" height="60" as="geometry"/>
                </mxCell>
                <mxCell id="41" style="edgeStyle=orthogonalEdgeStyle;shape=connector;curved=0;rounded=0;html=1;entryX=0;entryY=0.5;entryDx=0;entryDy=0;strokeColor=default;align=center;verticalAlign=middle;fontFamily=Helvetica;fontSize=11;fontColor=default;labelBackgroundColor=default;endArrow=classic;strokeWidth=1;exitX=1;exitY=0.5;exitDx=0;exitDy=0;" parent="1" source="63" target="_g_-pIgFg-YZKvBXQmOI-55" edge="1">
                    <mxGeometry relative="1" as="geometry">
                        <mxPoint x="320" y="590" as="sourcePoint"/>
                    </mxGeometry>
                </mxCell>
                <mxCell id="_g_-pIgFg-YZKvBXQmOI-84" value="" style="rounded=1;whiteSpace=wrap;html=1;fillColor=#ffe6cc;strokeColor=#d79b00;strokeWidth=1;" parent="1" vertex="1">
                    <mxGeometry x="200" y="560" width="120" height="60" as="geometry"/>
                </mxCell>
                <mxCell id="42" style="edgeStyle=orthogonalEdgeStyle;shape=connector;curved=0;rounded=0;html=1;entryX=0;entryY=0.5;entryDx=0;entryDy=0;strokeColor=default;align=center;verticalAlign=middle;fontFamily=Helvetica;fontSize=11;fontColor=default;labelBackgroundColor=default;endArrow=classic;strokeWidth=1;exitX=1;exitY=0.5;exitDx=0;exitDy=0;" parent="1" source="66" target="_g_-pIgFg-YZKvBXQmOI-55" edge="1">
                    <mxGeometry relative="1" as="geometry"/>
                </mxCell>
                <mxCell id="_g_-pIgFg-YZKvBXQmOI-85" value="" style="rounded=1;whiteSpace=wrap;html=1;strokeWidth=1;fillColor=#ffe6cc;strokeColor=#d79b00;" parent="1" vertex="1">
                    <mxGeometry x="200" y="640" width="120" height="60" as="geometry"/>
                </mxCell>
                <mxCell id="_g_-pIgFg-YZKvBXQmOI-93" value="" style="rounded=1;whiteSpace=wrap;html=1;fillColor=#dae8fc;strokeColor=#6c8ebf;strokeWidth=1;" parent="1" vertex="1">
                    <mxGeometry x="374" y="360" width="120" height="60" as="geometry"/>
                </mxCell>
                <mxCell id="_g_-pIgFg-YZKvBXQmOI-118" value="&lt;b&gt;&lt;font style=&quot;font-size: 14px;&quot;&gt;Recyclage des pièces métalliques&lt;/font&gt;&lt;/b&gt;" style="rounded=1;whiteSpace=wrap;html=1;fillColor=#FFFFFF;strokeColor=#9673a6;strokeWidth=2;" parent="1" vertex="1">
                    <mxGeometry x="1020" y="450" width="120" height="60" as="geometry"/>
                </mxCell>
                <mxCell id="_g_-pIgFg-YZKvBXQmOI-122" value="&lt;div&gt;&lt;b&gt;&lt;font style=&quot;font-size: 14px;&quot;&gt;incinération&lt;/font&gt;&lt;/b&gt;&lt;/div&gt;" style="rounded=1;whiteSpace=wrap;html=1;fillColor=#FFFFFF;strokeColor=#9673a6;strokeWidth=2;" parent="1" vertex="1">
                    <mxGeometry x="1020" y="560" width="120" height="60" as="geometry"/>
                </mxCell>
                <mxCell id="TKz2kePubepipSxSgJpN-10" value="" style="edgeStyle=orthogonalEdgeStyle;rounded=0;orthogonalLoop=1;jettySize=auto;html=1;entryX=0.5;entryY=1;entryDx=0;entryDy=0;strokeWidth=1;exitX=0.5;exitY=0;exitDx=0;exitDy=0;" parent="1" source="83" target="_g_-pIgFg-YZKvBXQmOI-57" edge="1">
                    <mxGeometry relative="1" as="geometry">
                        <Array as="points"/>
                    </mxGeometry>
                </mxCell>
                <mxCell id="38" style="edgeStyle=orthogonalEdgeStyle;shape=connector;curved=0;rounded=0;html=1;entryX=0;entryY=0.5;entryDx=0;entryDy=0;strokeColor=default;align=center;verticalAlign=middle;fontFamily=Helvetica;fontSize=11;fontColor=default;labelBackgroundColor=default;endArrow=classic;strokeWidth=1;" parent="1" source="29" target="_g_-pIgFg-YZKvBXQmOI-55" edge="1">
                    <mxGeometry relative="1" as="geometry"/>
                </mxCell>
                <mxCell id="29" value="&lt;font style=&quot;font-size: 14px;&quot;&gt;&lt;b&gt;Support conducteur&lt;/b&gt;&lt;/font&gt;" style="rounded=1;whiteSpace=wrap;html=1;strokeWidth=1;" parent="1" vertex="1">
                    <mxGeometry x="210" y="400" width="120" height="60" as="geometry"/>
                </mxCell>
                <mxCell id="63" value="&lt;font style=&quot;font-size: 14px;&quot;&gt;&lt;b&gt;Inox&lt;/b&gt;&lt;/font&gt;" style="rounded=1;whiteSpace=wrap;html=1;fillColor=#FFFFFF;strokeColor=#d79b00;strokeWidth=2;shadow=0;glass=0;fillStyle=auto;" parent="1" vertex="1">
                    <mxGeometry x="210" y="570" width="120" height="60" as="geometry"/>
                </mxCell>
                <mxCell id="66" value="&lt;font style=&quot;font-size: 14px;&quot;&gt;&lt;b&gt;poudre isolante&lt;/b&gt;&lt;/font&gt;" style="rounded=1;whiteSpace=wrap;html=1;fillColor=#FFFFFF;strokeColor=#d79b00;strokeWidth=1;shadow=0;glass=0;fillStyle=auto;" parent="1" vertex="1">
                    <mxGeometry x="210" y="650" width="120" height="60" as="geometry"/>
                </mxCell>
                <mxCell id="77" style="edgeStyle=orthogonalEdgeStyle;shape=connector;rounded=0;html=1;entryX=0.5;entryY=0;entryDx=0;entryDy=0;strokeColor=default;strokeWidth=1;align=center;verticalAlign=middle;fontFamily=Helvetica;fontSize=11;fontColor=default;labelBackgroundColor=default;endArrow=classic;" parent="1" source="67" target="_g_-pIgFg-YZKvBXQmOI-56" edge="1">
                    <mxGeometry relative="1" as="geometry">
                        <Array as="points">
                            <mxPoint x="440" y="460"/>
                            <mxPoint x="578" y="460"/>
                        </Array>
                    </mxGeometry>
                </mxCell>
                <mxCell id="67" value="&lt;font style=&quot;font-size: 14px;&quot;&gt;&lt;b&gt;importation&lt;/b&gt;&lt;/font&gt;" style="rounded=1;whiteSpace=wrap;html=1;fillColor=#FFFFFF;strokeColor=#6c8ebf;strokeWidth=2;shadow=0;glass=0;fillStyle=auto;" parent="1" vertex="1">
                    <mxGeometry x="380" y="370" width="120" height="60" as="geometry"/>
                </mxCell>
                <mxCell id="78" style="edgeStyle=orthogonalEdgeStyle;shape=connector;rounded=0;html=1;entryX=0.5;entryY=0;entryDx=0;entryDy=0;strokeColor=default;strokeWidth=1;align=center;verticalAlign=middle;fontFamily=Helvetica;fontSize=11;fontColor=default;labelBackgroundColor=default;endArrow=classic;" parent="1" source="68" target="_g_-pIgFg-YZKvBXQmOI-56" edge="1">
                    <mxGeometry relative="1" as="geometry"/>
                </mxCell>
                <mxCell id="68" value="&lt;font style=&quot;font-size: 14px;&quot;&gt;&lt;b&gt;collecte en magasin&lt;/b&gt;&lt;/font&gt;" style="rounded=1;whiteSpace=wrap;html=1;strokeWidth=1;shadow=0;glass=0;fillStyle=auto;" parent="1" vertex="1">
                    <mxGeometry x="518" y="370" width="120" height="60" as="geometry"/>
                </mxCell>
                <mxCell id="79" style="edgeStyle=orthogonalEdgeStyle;shape=connector;rounded=0;html=1;entryX=0.5;entryY=0;entryDx=0;entryDy=0;strokeColor=default;strokeWidth=1;align=center;verticalAlign=middle;fontFamily=Helvetica;fontSize=11;fontColor=default;labelBackgroundColor=default;endArrow=classic;" parent="1" source="69" target="_g_-pIgFg-YZKvBXQmOI-56" edge="1">
                    <mxGeometry relative="1" as="geometry">
                        <Array as="points">
                            <mxPoint x="720" y="460"/>
                            <mxPoint x="578" y="460"/>
                        </Array>
                    </mxGeometry>
                </mxCell>
                <mxCell id="69" value="&lt;font style=&quot;font-size: 14px;&quot;&gt;&lt;b&gt;livraison&lt;/b&gt;&lt;/font&gt;" style="rounded=1;whiteSpace=wrap;html=1;strokeWidth=1;shadow=0;glass=0;fillStyle=auto;" parent="1" vertex="1">
                    <mxGeometry x="660" y="370" width="120" height="60" as="geometry"/>
                </mxCell>
                <mxCell id="83" value="" style="rounded=1;whiteSpace=wrap;html=1;fillColor=#d5e8d4;strokeColor=#82b366;strokeWidth=2;" parent="1" vertex="1">
                    <mxGeometry x="670" y="610" width="120" height="60" as="geometry"/>
                </mxCell>
                <mxCell id="TKz2kePubepipSxSgJpN-7" value="&lt;b&gt;&lt;font style=&quot;font-size: 14px;&quot;&gt;Utilisation en Europe&lt;/font&gt;&lt;/b&gt;" style="rounded=1;whiteSpace=wrap;html=1;fillColor=#FFFFFF;strokeColor=#82b366;strokeWidth=2;" parent="1" vertex="1">
                    <mxGeometry x="680" y="620" width="120" height="60" as="geometry"/>
                </mxCell>
                <mxCell id="85" style="edgeStyle=orthogonalEdgeStyle;shape=connector;rounded=0;html=1;entryX=0;entryY=0.5;entryDx=0;entryDy=0;strokeColor=default;strokeWidth=1;align=center;verticalAlign=middle;fontFamily=Helvetica;fontSize=11;fontColor=default;labelBackgroundColor=default;endArrow=classic;" parent="1" source="84" target="_g_-pIgFg-YZKvBXQmOI-55" edge="1">
                    <mxGeometry relative="1" as="geometry"/>
                </mxCell>
                <mxCell id="84" value="&lt;font style=&quot;font-size: 14px;&quot;&gt;&lt;b&gt;Gaine polymère&lt;/b&gt;&lt;/font&gt;" style="rounded=1;whiteSpace=wrap;html=1;strokeWidth=1;" parent="1" vertex="1">
                    <mxGeometry x="210" y="320" width="120" height="60" as="geometry"/>
                </mxCell>
            </root>
        </mxGraphModel>
    </diagram>
</mxfile>